<?xml version="1.0" encoding="UTF-8" standalone="no"?>
<!-- Created with Inkscape (http://www.inkscape.org/) -->

<svg
   xmlns:dc="http://purl.org/dc/elements/1.1/"
   xmlns:cc="http://creativecommons.org/ns#"
   xmlns:rdf="http://www.w3.org/1999/02/22-rdf-syntax-ns#"
   xmlns:svg="http://www.w3.org/2000/svg"
   xmlns="http://www.w3.org/2000/svg"
   xmlns:sodipodi="http://sodipodi.sourceforge.net/DTD/sodipodi-0.dtd"
   xmlns:inkscape="http://www.inkscape.org/namespaces/inkscape"
   width="3050.6926"
   height="1527.1257"
   id="svg2"
   inkscape:label="Pozadí"
   version="1.1"
   inkscape:version="0.48.4 r9939"
   sodipodi:docname="microvascular.pdf">
  <title
     id="title5287">microvascular larynx</title>
  <defs
     id="defs3790">
    <marker
       inkscape:stockid="TriangleOutL"
       orient="auto"
       refY="0"
       refX="0"
       id="TriangleOutL"
       style="overflow:visible">
      <path
         id="path4756"
         d="m 5.77,0 -8.65,5 0,-10 8.65,5 z"
         style="fill-rule:evenodd;stroke:#000000;stroke-width:1pt"
         transform="scale(0.8,0.8)"
         inkscape:connector-curvature="0" />
    </marker>
    <marker
       inkscape:stockid="Arrow2Lend"
       orient="auto"
       refY="0"
       refX="0"
       id="Arrow2Lend"
       style="overflow:visible">
      <path
         id="path4635"
         style="fill-rule:evenodd;stroke-width:0.625;stroke-linejoin:round"
         d="M 8.7185878,4.0337352 -2.2072895,0.01601326 8.7185884,-4.0017078 c -1.7454984,2.3720609 -1.7354408,5.6174519 -6e-7,8.035443 z"
         transform="matrix(-1.1,0,0,-1.1,-1.1,0)"
         inkscape:connector-curvature="0" />
    </marker>
  </defs>
  <sodipodi:namedview
     id="base"
     pagecolor="#ffffff"
     bordercolor="#666666"
     borderopacity="1.0"
     inkscape:pageopacity="0.0"
     inkscape:pageshadow="2"
     inkscape:zoom="0.59"
     inkscape:cx="1966.6206"
     inkscape:cy="747.0745"
     inkscape:document-units="px"
     inkscape:current-layer="layer2"
     showgrid="false"
     fit-margin-top="0"
     fit-margin-left="0"
     fit-margin-right="10"
     fit-margin-bottom="0"
     inkscape:window-width="1680"
     inkscape:window-height="987"
     inkscape:window-x="-8"
     inkscape:window-y="-8"
     inkscape:window-maximized="1"
     inkscape:snap-center="false"
     inkscape:snap-object-midpoints="true" />
  <metadata
     id="metadata3793">
    <rdf:RDF>
      <cc:Work
         rdf:about="">
        <dc:format>image/svg+xml</dc:format>
        <dc:type
           rdf:resource="http://purl.org/dc/dcmitype/StillImage" />
        <dc:title>microvascular larynx</dc:title>
      </cc:Work>
    </rdf:RDF>
  </metadata>
  <g
     inkscape:label="Vrstva 1"
     inkscape:groupmode="layer"
     id="layer1"
     transform="translate(263.11695,159.31324)">
    <path
       sodipodi:nodetypes="cssssccscccccccccccsccccccccc"
       inkscape:connector-curvature="0"
       id="path3882-1"
       d="m -160.94163,-158.51414 c -4.23375,20.12088 33.96137,42.8336 38.54887,71.110862 4.6336,28.56111 0.6879,25.43937 -10.3159,47.481521 -15.9796,32.0094696 -26.6386,50.29523 -45.78281,81.22566 -38.2472,61.794537 -81.4467,99.844847 -83.6931,131.803727 -4.8237,68.62513 31.77014,73.23715 57.05678,71.30031 7.77909,-0.68568 17.10882,-23.8094 5.78112,-44.56813 -4.6122,-6.2736 -8.1931,-19.78531 -5.9007,-28.07773 14.5114,-52.49187 93.30091,-130.929667 133.835406,-187.238877 12.1672,-10.93412 35.929,-56.195531 96.6892,-63.406301 107.052404,-1.48996 124.592204,-1.3219 222.007104,2.33975 80.8083,1.31584 52.789,45.381661 85.7649,79.8935706 20.993,22.8220804 41.2068,23.8762704 77.1227,51.1792404 9.8521,6.58025 0.943,17.51868 20.9295,23.82659 6.6821,6.19367 -4.5875,12.70506 20.3919,18.07176 3.9068,-0.71049 5.4518,8.740877 7.2635,18.007317 21.067,16.70492 44.1864,29.90284 48.8208,72.16981 14.8802,72.07842 14.762,161.32748 22.4056,241.50943 8.1115,69.33451 22.91947,135.21643 34.49457,219.86525 8.97242,92.01707 11.2019,85.96841 15.79146,115.84263 4.58956,29.87421 6.89635,31.02843 13.92554,63.40265 14.246,57.86777 27.36793,149.73528 45.69413,226.3612 17.625,57.651 26.0333,111.0064 36.3207,166.9811 l 250.96827,0.3241 C 883.25101,1028.4683 809.3271,983.66578 786.2505,766.78344 c 5.0104,-119.83647 17.0166,-131.67735 60.8453,-236.22303 32.6975,-63.82794 77.0018,-143.762 105.5845,-273.80396 25.9456,-87.41803 23.3772,-102.507 46.5288,-232.643897 11.8736,-73.54187 14.5679,-105.29087 12.9233,-182.925793"
       style="fill:#ececec;stroke:#000000;stroke-width:1px;stroke-linecap:butt;stroke-linejoin:miter;stroke-opacity:1;display:inline" />
    <path
       sodipodi:nodetypes="ccccccccccssscccccccsccccccccccccccccccccccccccccccccccccccccssscccccccccccc"
       inkscape:connector-curvature="0"
       id="path3884-7"
       d="m 537.13196,1219.9563 c 0.8331,-125.5779 -80.26522,-250.23852 -108.65572,-292.50142 -10.0134,-12.7431 -27.2565,-6.713 -52.1303,-2.4592 -42.3961,7.7755 -55.8922,22.4095 -48.3341,34.2379 19.1266,54.00122 62.1795,49.58882 94.4564,106.43872 29.004,49.3276 38.7636,102.0606 56.9155,154.4856 m 158.3326,-0.8153 c -3.5791,-20.2818 -10.8334,-42.718 -17.6972,-70.8569 -10.7655,-36.6717 -21.5355,-80.975 -25.2524,-88.2131 -12.0844,-38.7255 -33.57758,-68.56703 -49.92118,-130.71853 -41.88871,-86.43358 -68.69863,-110.84522 -81.37342,-163.92135 -4.83347,-20.24034 -42.12922,-79.82164 -40.10986,-120.94561 3.80625,-77.51373 -31.59681,-74.26974 -42.77858,-55.90733 -10.0869,16.56444 -5.17114,14.62493 13.59713,58.22254 7.49221,34.98804 99.28837,235.21251 120.27864,264.77034 10.35623,16.97407 17.06687,51.40482 42.72627,107.33994 47.0421,150.354 48.1683,148.0664 58.161,200.4317 M 331.39618,694.58906 c -19.5407,-63.59556 -10.61561,-22.64114 -19.06251,-78.92684 -1.6158,-31.82998 11.56424,-70.01892 52.55078,-68.89303 43.99857,-0.20757 70.21554,41.1855 75.24614,77.1919 16.05329,114.90112 73.52494,264.11372 29.98251,7.57343 -1.95748,-20.99745 -21.70244,-60.76681 -23.65991,-81.76426 -5.14269,-32.86921 -0.8681,-8.68097 -6.01079,-41.55019 -9.18986,-33.34231 -3.91734,-15.51698 -10.55416,-54.06787 -12.8032,-14.75902 -8.8887,-21.76055 -10.846,-36.9932 -2.3616,-17.60547 -7.9904,-17.00707 -16.1061,-22.36961 -10.9507,-7.04165 -9.8437,-21.39569 -19.2697,-27.58945 -8.0915,-4.70331 -7.2139,-7.72902 -7.5738,-17.14977 -1.1795,-6.7806 -0.8774,-14.1962 -13.4218,-16.10611 -12.9306,-2.86564 -11.4392,-8.13493 -15.2113,-12.52698 -5.694,-9.65293 -14.4024,-14.78432 -26.8436,-14.31655 l -58.7487,-21.05922 c -34.6824,-2.76469 -50.631,-5.28824 -106.7863,1.37397 -51.6175,7.40141 -113.932304,36.29613 -143.401304,56.91418 -22.747,16.32785 -26.2139,29.16831 -38.9812,48.14622 -12.8318,18.43994 -5.3961,31.82517 7.0047,40.37384 49.3022,39.10666 76.5359,39.1534 110.0585,61.26093 14.492704,21.79107 -2.378,22.67325 -11.6322,28.63309 -19.9993,2.33919 -38.5931,2.21863 -51.8975,-7.15827 -18.5404004,-30.08635 -32.7383004,-45.69735 -41.16,-42.05486 l -25.9488,13.42177 c 6.0367,21.06871 8.8589,33.56583 9.8426,41.16007 -10.0552,1.40564 -14.7434,-6.98465 -14.7957,-15.58197 0.2357,-33.93701 -13.9798,-64.73437 -19.6852,-92.68693 l -10.2583,0 c -20.7296,5.05792 -9.2415,-3.69768 -4.4739,-9.84262 10.5249,-7.89525 9.0113,-26.56298 9.7341,-35.96352 -3.543,-32.05584 -6.4532,-35.82733 -9.9962,-58.60292 -1.7939,-16.78845 -2.5469,-30.28048 5.6308,-15.49203 0.3036,25.0327 2.6915,41.72828 8.0531,46.52878 l 41.16,2.68435 c 10.7382,-2.43879 23.4575996,-14.71887 36.6862,-29.52788 33.4648,-32.66919 47.0494,-39.03083 77.105,-46.63733 32.326404,-8.85238 150.674904,-22.98803 206.541604,-8.83928 74.7268,17.88756 86.5878,47.86472 121.6906,73.3723 22.15,8.10031 24.0017,-6.99747 10.7375,-39.37051 -23.0864,-38.80195 -56.6924,-53.71226 -81.9682,-63.26759 -42.7003,-12.0551 -69.0541,-27.22184 -150.4137,-19.94733 -77.8803,11.2317 -160.043604,7.71628 -240.959004,9.84263 -43.2495,7.85958 -76.636496,18.61992 -92.534896,36.70281 6.4352,14.77293 4.1789,36.84712 3.293,49.5103 -1.8097,25.86778 -17.5041,65.2305 -12.012,87.7414 2.3247,9.52841 10.5617,18.98944 19.9288,22.00444 10.811,3.47975 27.575396,-0.30047 30.216496,10.65472 -11.983196,12.67373 -31.736896,17.57702 -32.618796,41.35202 5.5833,33.06494 20.1942,27.75357 40.623696,36.02949 13.3042,20.85925 26.6717,41.72789 30.6061,61.19916 6.5784,45.66631 -9.9557,74.11204 -6.5911,113.57629 2.7609,30.58248 19.3564,53.78646 48.7997,70.13829 81.1509,15.15948 170.201404,-5.83373 264.391104,-9.5483 19.1147,-4.10729 34.7513,49.4055 35.8838,76.51844 2.3142,23.95842 4.5919,55.11952 17.9707,57.89002 20.5205,5.2249 49.48965,7.57188 59.89585,2.50738 44.9552,-15.4079 -18.28004,-91.75106 -16.62596,-120.17516 z"
       style="fill:#ececec;stroke:#000000;stroke-width:1px;stroke-linecap:butt;stroke-linejoin:miter;stroke-opacity:1;display:inline" />
    <path
       style="fill:#cccccc;stroke:#000000;stroke-width:1px;stroke-linecap:butt;stroke-linejoin:miter;stroke-opacity:1;display:inline"
       d="m -37.256364,302.80457 c -3.9384,12.28651 -22.7188,31.45199 -29.7373,54.41289 -2.0392,4.75811 -2.1339,32.31196 3.1635,49.35123 5.1339,16.51283 7.5417,0.9017 9.4907,-0.63271 0.3177,-11.16941 1.669,-16.13751 3.1635,-20.24666 1.4211,-25.93438 25.3441,-24.85451 13.9196,-82.88475 z"
       id="path3010-4"
       inkscape:connector-curvature="0"
       sodipodi:nodetypes="ccsccc" />
    <path
       style="fill:#cccccc;stroke:#000000;stroke-width:1px;stroke-linecap:butt;stroke-linejoin:miter;stroke-opacity:1;display:inline"
       d="m -53.104964,405.63455 c -6.1499,25.1029 0.5041,32.60027 3.1318,45.634 17.3401,31.48376 22.9757,32.53544 34.4491,48.76575 16.21359965,21.93157 11.5318996,11.21443 9.3952996,4.47392 -9.2180996,-14.81637 -19.2493996,-29.73438 -19.2378996,-43.39705 3.4444,-10.60268 -1.2343,-13.08219 -1.7895,-19.68525 -16.4299,-33.97361 -20.164,-31.97738 -25.9488,-35.79137 z"
       id="path3012-0"
       inkscape:connector-curvature="0"
       sodipodi:nodetypes="ccccccc" />
    <path
       sodipodi:nodetypes="cssssccscccccccccccsccccccccc"
       inkscape:connector-curvature="0"
       id="path3882-1-1"
       d="m 1419.7514,-157.64512 c -1.4017,14.51135 32.9652,45.35677 37.5527,73.634072 4.6336,28.5611 0.6879,25.4393 -10.3159,47.4815 -15.9796,32.0094 -26.6386,50.2952 -45.7828,81.2256 -38.2472,61.794598 -81.4467,99.844898 -83.6931,131.803798 -4.8237,68.6251 30.879,72.59099 64.8892,72.85501 8.8043,0.37465 9.2764,-25.36411 -2.0513,-46.12291 -4.6122,-6.2736 -8.1931,-19.7853 -5.9007,-28.0777 14.5114,-52.4919 93.3009,-130.929698 133.8354,-187.238898 12.1672,-10.9341 35.929,-56.1955 96.6892,-63.4063 107.0524,-1.4899 124.5922,-1.3219 222.0071,2.3398 80.8083,1.3158 52.789,45.3816 85.7649,79.8936 20.993,22.822 41.2068,23.8762 77.1227,51.1792 9.8521,6.5802 0.943,17.5187 20.9295,23.8266 6.6821,6.193698 -4.5875,12.704998 20.3919,18.071698 3.9068,-0.7104 5.4518,8.7409 7.2635,18.0074 21.067,16.7049 44.1864,29.9028 48.8208,72.1698 14.8802,72.0784 14.762,161.3275 22.4056,241.5094 8.1115,69.3345 22.9195,135.2164 34.4946,219.8653 8.9724,92.017 11.2019,85.9684 15.7915,115.8426 4.5895,29.8742 6.8963,31.0284 13.9255,63.4026 14.246,57.8678 27.3679,149.7353 45.6941,226.36125 17.625,57.651 26.0333,111.0064 36.3207,166.9811 l 250.9683,0.039 c -43.9269,-192.423 -117.8508,-236.9405 -140.9274,-453.82285 5.0104,-119.8365 17.0166,-131.6774 60.8453,-236.2231 32.6975,-63.8279 77.0018,-143.762 105.5845,-273.8039 25.9456,-87.418 23.3772,-102.507 46.5288,-232.643898 11.8736,-73.5419 14.1647,-107.897558 12.5201,-185.532462"
       style="fill:#ececec;stroke:#000000;stroke-width:1px;stroke-linecap:butt;stroke-linejoin:miter;stroke-opacity:1;display:inline" />
    <path
       sodipodi:nodetypes="ccccccccccssscsccccccsccccccccccccccccccccccccccccccccccccccssscccccccccccc"
       inkscape:connector-curvature="0"
       id="path3884-7-7"
       d="m 2117.6353,1223.5501 c 0.8331,-125.5779 -81.0717,-250.44015 -109.4622,-292.70305 -10.0134,-12.7431 -27.2565,-6.713 -52.1303,-2.4592 -42.3961,7.7755 -55.8922,22.4095 -48.3341,34.2379 19.1266,54.00125 62.1795,49.58885 94.4564,106.43875 29.004,49.3276 38.7636,102.0606 56.9155,154.4856 m 158.3326,-0.01 c -3.5791,-20.2818 -10.8334,-43.5244 -17.6972,-71.6633 -10.7655,-36.6717 -21.5355,-80.975 -25.2524,-88.2131 -12.0844,-38.7255 -33.5776,-68.567 -49.9212,-130.71855 -41.8887,-86.4336 -57.7024,-101.0121 -83.9726,-151.067 -9.6705,-18.4259 -67.4891,-120.9155 -41.5576,-152.8969 36.1097,-44.5344 -37.4303,-60.7807 -47.3104,-40.8013 -14.5772,29.4779 2.538,84.8726 2.538,84.8726 10.9371,32.6 34.7355,64.0362 64.832,118.9003 30.0965,54.8641 62.2205,108.78479 74.8829,123.29909 16.5054,22.1026 17.2685,51.31661 42.9279,107.25176 47.0421,150.354 48.1683,148.0664 58.161,200.4317 M 1911.0931,697.98125 c -19.5407,-63.5956 -10.6156,-22.6411 -19.0625,-78.9268 -3.3481,-16.5914 17.0036,-67.758 52.5507,-68.8931 45.4096,1.2105 70.2412,22.4745 76.7568,51.5116 25.898,115.4173 87.1796,89.0328 34.5143,-33.2129 -36.5079,-59.1358 -36.8614,-75.2201 -36.8614,-75.2201 -9.0412,-30.9625 -16.3493,-44.0231 -20.2519,-72.6888 -2.3616,-17.6054 -7.9904,-17.007 -16.1061,-22.3696 -10.9507,-7.0416 -9.8437,-21.3957 -19.2697,-27.5894 -8.0915,-4.7033 -7.2139,-7.729 -7.5738,-17.1498 -1.1795,-6.7806 -0.8774,-14.1962 -13.4218,-16.1061 -12.9306,-2.8656 -11.4392,-8.1349 -15.2113,-12.527 -5.694,-9.6529 -14.4024,-14.7843 -26.8436,-14.3165 l -58.7487,-21.0593 c -34.6824,-2.7646 -50.631,-5.2882 -106.7863,1.374 -51.6175,7.4014 -113.9323,36.2961 -143.4013,56.9142 -22.747,16.3278 -26.2139,29.1683 -38.9812,48.1462 -12.8318,18.44 -5.3961,31.8252 7.0047,40.3739 49.3022,39.1066 76.5359,39.1534 110.0585,61.2609 14.4927,21.7911 -2.378,22.6732 -11.6322,28.6331 -19.9993,2.3392 -38.5931,2.2186 -51.8975,-7.1583 -18.5404,-30.0863 -32.7383,-45.6973 -41.16,-42.0549 l -25.9488,13.4218 c 6.0367,21.0687 8.8589,33.5658 9.8426,41.1601 -10.0552,1.4056 -14.7434,-6.9847 -14.7957,-15.582 0.2357,-33.937 -13.9798,-64.7344 -19.6852,-92.6869 l -10.2583,0 c -20.7296,5.0579 -9.2415,-3.6977 -4.4739,-9.8426 10.5249,-7.8953 9.0113,-26.563 9.7341,-35.9636 -3.543,-32.0558 -6.4532,-35.8273 -9.9962,-58.6029 -1.7939,-16.7884 -2.5469,-30.2805 5.6308,-15.492 0.3036,25.0327 2.6915,41.7283 8.0531,46.5288 l 41.16,2.6843 c 10.7382,-2.4388 23.4576,-14.7188 36.6862,-29.5279 33.4648,-32.6691 47.0494,-39.0308 77.105,-46.6373 32.3264,-8.8524 150.6749,-22.988 206.5416,-8.8393 74.7268,17.8876 86.5878,47.8648 121.6906,73.3723 22.15,8.1003 24.0017,-6.9974 10.7375,-39.3705 -23.0864,-38.8019 -56.6924,-53.7122 -81.9682,-63.2676 -42.7003,-12.0551 -69.0541,-27.2218 -150.4137,-19.9473 -77.8803,11.2317 -160.0436,7.7163 -240.959,9.8426 -43.2495,7.8596 -76.6365,18.62 -92.5349,36.7028 6.4352,14.773 4.1789,36.8472 3.293,49.5103 -1.8097,25.8678 -17.5041,65.2305 -12.012,87.7414 2.3247,9.5285 10.5617,18.9895 19.9288,22.0045 10.811,3.4797 27.5754,-0.3005 30.2165,10.6547 -11.9832,12.6737 -31.7369,17.577 -32.6188,41.352 5.5833,33.065 20.1942,27.7536 40.6237,36.0295 13.3042,20.8593 26.6717,41.7279 30.6061,61.1992 6.5784,45.6663 -9.9557,74.112 -6.5911,113.5763 2.7609,30.5824 19.3564,53.7864 48.7997,70.1383 81.1509,15.1594 170.2014,-5.8338 264.3911,-9.5483 19.1147,-4.1073 34.7513,49.4055 35.8838,76.5184 2.3142,23.9584 4.5919,55.1195 17.9707,57.89 20.5205,5.2249 49.4897,7.5719 59.8959,2.5074 44.9552,-15.4079 -18.2801,-91.7511 -16.626,-120.1752 z"
       style="fill:#ececec;stroke:#000000;stroke-width:1px;stroke-linecap:butt;stroke-linejoin:miter;stroke-opacity:1;display:inline" />
    <path
       style="fill:#cccccc;stroke:#000000;stroke-width:1px;stroke-linecap:butt;stroke-linejoin:miter;stroke-opacity:1;display:inline"
       d="m 1542.4405,306.19675 c -3.9384,12.2865 -22.7188,31.452 -29.7373,54.4129 -2.0392,4.7581 -2.1339,32.312 3.1635,49.3512 5.1339,16.5129 7.5417,0.9017 9.4907,-0.6327 0.3177,-11.1694 1.669,-16.1375 3.1635,-20.2466 1.4211,-25.9344 25.3441,-24.8546 13.9196,-82.8848 z"
       id="path3010-4-4"
       inkscape:connector-curvature="0"
       sodipodi:nodetypes="ccsccc" />
    <path
       style="fill:#cccccc;stroke:#000000;stroke-width:1px;stroke-linecap:butt;stroke-linejoin:miter;stroke-opacity:1;display:inline"
       d="m 1526.5919,409.02675 c -6.1499,25.1029 0.5041,32.6003 3.1318,45.634 17.3401,31.4837 22.9757,32.5354 34.4491,48.7657 16.2136,21.9316 11.5319,11.2145 9.3953,4.474 -9.2181,-14.8164 -19.2494,-29.7344 -19.2379,-43.3971 3.4444,-10.6027 -1.2343,-13.0822 -1.7895,-19.6852 -16.4299,-33.9737 -20.164,-31.9774 -25.9488,-35.7914 z"
       id="path3012-0-0"
       inkscape:connector-curvature="0"
       sodipodi:nodetypes="ccccccc" />
    <text
       xml:space="preserve"
       style="font-size:64px;font-style:normal;font-weight:normal;line-height:125%;letter-spacing:0px;word-spacing:0px;fill:#000000;fill-opacity:1;stroke:none;font-family:Sans"
       x="2436.8257"
       y="652.93365"
       id="text3003"
       sodipodi:linespacing="125%"><tspan
         sodipodi:role="line"
         x="2436.8257"
         y="652.93365"
         id="tspan3007">Chrupavkou</tspan><tspan
         sodipodi:role="line"
         x="2436.8257"
         y="732.93365"
         id="tspan3013">vyztužený</tspan><tspan
         sodipodi:role="line"
         x="2436.8257"
         y="812.93365"
         id="tspan3011">neoglottis</tspan></text>
    <text
       xml:space="preserve"
       style="font-size:48px;font-style:normal;font-weight:normal;line-height:125%;letter-spacing:0px;word-spacing:0px;fill:#000000;fill-opacity:1;stroke:none;font-family:Sans"
       x="1349.8077"
       y="1147.326"
       id="text3015"
       sodipodi:linespacing="125%"><tspan
         sodipodi:role="line"
         id="tspan3017"
         x="1349.8077"
         y="1147.326"
         style="font-size:64px">Mikrovaskulární</tspan><tspan
         sodipodi:role="line"
         x="1349.8077"
         y="1227.326"
         id="tspan3019"
         style="font-size:64px">štěp jako neolarynx</tspan></text>
    <text
       xml:space="preserve"
       style="font-size:48px;font-style:normal;font-weight:normal;line-height:125%;letter-spacing:0px;word-spacing:0px;fill:#000000;fill-opacity:1;stroke:none;font-family:Sans"
       x="1235.6138"
       y="913.74829"
       id="text3021"
       sodipodi:linespacing="125%"><tspan
         sodipodi:role="line"
         id="tspan3023"
         x="1235.6138"
         y="913.74829"
         style="font-size:64px">Dynamický závěs</tspan><tspan
         sodipodi:role="line"
         x="1235.6138"
         y="993.74829"
         id="tspan3025"
         style="font-size:64px">v podobě jazylky</tspan></text>
    <path
       style="fill:none;stroke:#000000;stroke-width:2;stroke-linecap:butt;stroke-linejoin:miter;stroke-miterlimit:4;stroke-opacity:1;stroke-dasharray:none"
       d="M 1741.2542,929.79304 1970.9327,628.92235"
       id="path3027"
       inkscape:connector-curvature="0"
       sodipodi:nodetypes="cc" />
    <path
       style="fill:none;stroke:#000000;stroke-width:2;stroke-linecap:butt;stroke-linejoin:miter;stroke-miterlimit:4;stroke-opacity:1;stroke-dasharray:none"
       d="M 1825.8827,1142.8939 C 1952.9242,812.00895 1952.9242,812.00895 1952.9242,812.00895"
       id="path3809"
       inkscape:connector-curvature="0"
       sodipodi:nodetypes="cc" />
    <path
       style="fill:none;stroke:#000000;stroke-width:2;stroke-linecap:butt;stroke-linejoin:miter;stroke-miterlimit:4;stroke-opacity:1;stroke-dasharray:none"
       d="m 2415.1427,715.96355 c -372.176,-105.0497 -375.1774,-105.0497 -375.1774,-105.0497"
       id="path3811"
       inkscape:connector-curvature="0" />
    <text
       xml:space="preserve"
       style="font-size:48px;font-style:normal;font-weight:normal;line-height:125%;letter-spacing:0px;word-spacing:0px;fill:#000000;fill-opacity:1;stroke:none;font-family:Sans"
       x="396.89279"
       y="1357.7109"
       id="text3042"
       sodipodi:linespacing="125%"><tspan
         sodipodi:role="line"
         id="tspan3044"
         x="396.89279"
         y="1357.7109">A)</tspan></text>
    <text
       xml:space="preserve"
       style="font-size:48px;font-style:normal;font-weight:normal;line-height:125%;letter-spacing:0px;word-spacing:0px;fill:#000000;fill-opacity:1;stroke:none;font-family:Sans"
       x="1994.1223"
       y="1357.7109"
       id="text3046"
       sodipodi:linespacing="125%"><tspan
         sodipodi:role="line"
         id="tspan3048"
         x="1994.1223"
         y="1357.7109">B)</tspan></text>
    <rect
       style="fill:#ececec;stroke:#ececec;stroke-width:0.61558092;stroke-miterlimit:4;stroke-dasharray:none"
       id="rect3034"
       width="248.95494"
       height="2.357527"
       x="676.92725"
       y="1219.1178" />
    <rect
       style="fill:#ececec;stroke:#ececec;stroke-width:0.61558092;stroke-miterlimit:4;stroke-dasharray:none"
       id="rect3034-1"
       width="248.95494"
       height="2.357527"
       x="2256.4011"
       y="1222.6462" />
  </g>
  <g
     inkscape:groupmode="layer"
     id="layer2"
     inkscape:label="popisek"
     style="display:inline"
     transform="translate(263.11695,159.31324)">
    <text
       xml:space="preserve"
       style="font-size:48px;font-style:normal;font-weight:normal;line-height:125%;letter-spacing:0px;word-spacing:0px;fill:#000000;fill-opacity:1;stroke:none;display:inline;font-family:Sans"
       x="-75.474136"
       y="932.41132"
       id="text3945"
       sodipodi:linespacing="125%"><tspan
         sodipodi:role="line"
         id="tspan3947"
         x="-75.474136"
         y="932.41132"
         style="font-size:64px" /></text>
    <text
       xml:space="preserve"
       style="font-size:48px;font-style:normal;font-variant:normal;font-weight:normal;font-stretch:normal;line-height:125%;letter-spacing:0px;word-spacing:0px;fill:#000000;fill-opacity:1;stroke:none;font-family:Arial;-inkscape-font-specification:Arial"
       x="-220.6929"
       y="950.89099"
       id="text3004"
       sodipodi:linespacing="125%"><tspan
         sodipodi:role="line"
         id="tspan3006"
         x="-220.6929"
         y="950.89099"
         style="font-size:64px">&quot;řečový sifon&quot; </tspan><tspan
         sodipodi:role="line"
         x="-220.6929"
         y="1030.891"
         id="tspan3008"
         style="font-size:64px">z částí tenkého</tspan><tspan
         sodipodi:role="line"
         x="-220.6929"
         y="1110.891"
         style="font-size:64px"
         id="tspan3034">střeva</tspan></text>
    <path
       style="fill:none;stroke:#000000;stroke-width:2;stroke-linecap:butt;stroke-linejoin:miter;stroke-miterlimit:4;stroke-opacity:1;stroke-dasharray:none"
       d="m 635.9654,877.86569 c 0,0 0,0 -270.39859,166.16671 C 699.41088,782.69747 699.41088,782.69747 699.41088,782.69747"
       id="path3010"
       inkscape:connector-curvature="0"
       transform="translate(-263.07353,-158.08516)" />
    <text
       xml:space="preserve"
       style="font-size:48px;font-style:normal;font-weight:normal;line-height:125%;letter-spacing:0px;word-spacing:0px;fill:#000000;fill-opacity:1;stroke:none;font-family:Sans"
       x="944.73987"
       y="515.68164"
       id="text3792"
       sodipodi:linespacing="125%"><tspan
         sodipodi:role="line"
         id="tspan3794"
         x="944.73987"
         y="515.68164"
         style="font-size:64px" /><tspan
         sodipodi:role="line"
         x="944.73987"
         y="595.68164"
         id="tspan3798"
         style="font-size:64px">Rekonstruovaný </tspan><tspan
         sodipodi:role="line"
         x="944.73987"
         y="675.68164"
         id="tspan3800"
         style="font-size:64px">hltan pomocí </tspan><tspan
         sodipodi:role="line"
         x="944.73987"
         y="755.68164"
         style="font-size:64px"
         id="tspan3027">lačníku</tspan></text>
    <path
       style="fill:none;stroke:#000000;stroke-width:2;stroke-linecap:butt;stroke-linejoin:miter;stroke-miterlimit:4;stroke-opacity:1;stroke-dasharray:none"
       d="M 1178.1947,801.50008 758.32453,705.65654"
       id="path3802"
       inkscape:connector-curvature="0"
       transform="translate(-263.07353,-158.08516)"
       sodipodi:nodetypes="cc" />
  </g>
</svg>
