<?xml version="1.0" encoding="UTF-8" standalone="no"?>
<!-- Created with Inkscape (http://www.inkscape.org/) -->

<svg
   xmlns:dc="http://purl.org/dc/elements/1.1/"
   xmlns:cc="http://creativecommons.org/ns#"
   xmlns:rdf="http://www.w3.org/1999/02/22-rdf-syntax-ns#"
   xmlns:svg="http://www.w3.org/2000/svg"
   xmlns="http://www.w3.org/2000/svg"
   xmlns:sodipodi="http://sodipodi.sourceforge.net/DTD/sodipodi-0.dtd"
   xmlns:inkscape="http://www.inkscape.org/namespaces/inkscape"
   width="1467.6174"
   height="1383.9547"
   id="svg2"
   inkscape:label="Pozadí"
   version="1.1"
   inkscape:version="0.48.4 r9939"
   sodipodi:docname="electrolarynx.svg">
  <defs
     id="defs3809" />
  <sodipodi:namedview
     id="base"
     pagecolor="#ffffff"
     bordercolor="#666666"
     borderopacity="1.0"
     inkscape:pageopacity="0.0"
     inkscape:pageshadow="2"
     inkscape:zoom="0.32128906"
     inkscape:cx="1334.4627"
     inkscape:cy="566.34288"
     inkscape:document-units="px"
     inkscape:current-layer="layer4"
     showgrid="false"
     fit-margin-top="0"
     fit-margin-left="0"
     fit-margin-right="0"
     fit-margin-bottom="-5"
     inkscape:window-width="1920"
     inkscape:window-height="1137"
     inkscape:window-x="-8"
     inkscape:window-y="-8"
     inkscape:window-maximized="1" />
  <metadata
     id="metadata3812">
    <rdf:RDF>
      <cc:Work
         rdf:about="">
        <dc:format>image/svg+xml</dc:format>
        <dc:type
           rdf:resource="http://purl.org/dc/dcmitype/StillImage" />
        <dc:title />
      </cc:Work>
    </rdf:RDF>
  </metadata>
  <g
     inkscape:label="Vrstva 1"
     inkscape:groupmode="layer"
     id="layer1"
     transform="translate(454.79184,158.95905)"
     style="display:inline">
    <path
       sodipodi:nodetypes="cssssccscccccccccccccccccccc"
       inkscape:connector-curvature="0"
       id="path3882-1"
       d="m -157.53949,-158.3502 c -2.70936,14.68114 30.55923,42.66966 35.14673,70.946922 4.6336,28.56111 0.6879,25.43937 -10.3159,47.481521 -15.9796,32.0094696 -26.6386,50.29523 -45.78281,81.22566 -38.2472,61.794537 -81.4467,99.844847 -83.6931,131.803727 -4.8237,68.62513 28.86276,71.65826 62.29331,72.32547 11.2592,0.54163 11.87229,-24.83456 0.54459,-45.59329 -4.6122,-6.2736 -8.1931,-19.78531 -5.9007,-28.07773 14.5114,-52.49187 93.30091,-130.929667 133.835406,-187.238877 12.1672,-10.93412 35.929,-56.195531 96.6892,-63.406301 107.052404,-1.48996 124.592204,-1.3219 222.007104,2.33975 80.8083,1.31584 52.789,45.381661 85.7649,79.8935706 20.993,22.8220804 41.2068,23.8762704 77.1227,51.1792404 9.8521,6.58025 0.943,17.51868 20.9295,23.82659 6.6821,6.19367 -4.5875,12.70506 20.3919,18.07176 3.9068,-0.71049 5.4518,8.740877 7.2635,18.007317 21.067,16.70492 44.1864,29.90284 48.8208,72.16981 14.8802,72.07842 14.762,161.32748 22.4056,241.50943 8.1115,69.33451 3.9909,129.50214 15.566,214.15096 9.3734,59.74843 16.3729,119.49685 29.717,179.24528 14.246,57.86777 46.2965,155.44957 64.6227,232.07549 17.625,57.651 23.5333,119.9349 33.8207,175.9096 l 255.68019,-0.036 C 885.46293,1037.0368 809.3271,983.66578 786.2505,766.78344 c 5.0104,-119.83647 17.0166,-131.67735 60.8453,-236.22303 32.6975,-63.82794 77.0018,-143.762 105.5845,-273.80396 25.9456,-87.41803 23.3772,-102.507 46.5288,-232.643897 11.8736,-73.54187 14.3,-104.93668 12.6554,-182.571603"
       style="fill:#ececec;stroke:#000000;stroke-width:1px;stroke-linecap:butt;stroke-linejoin:miter;stroke-opacity:1;display:inline" />
    <path
       sodipodi:nodetypes="ccccccccccccccsccccccccccccccccccccccccccccccccccccccccssscccccccccccccc"
       inkscape:connector-curvature="0"
       id="path3884-7"
       d="m 540.82809,1227.2432 c 0.8331,-125.5779 -83.96135,-257.52542 -112.35185,-299.78832 -10.0134,-12.7431 -27.2565,-6.713 -52.1303,-2.4592 -42.3961,7.7755 -55.8922,22.4095 -48.3341,34.2379 19.1266,54.00122 62.1795,49.58882 94.4564,106.43872 29.004,49.3276 35.79999,109.503 53.95189,161.928 m 164.74509,0.2486 c -3.5791,-20.2818 -14.28228,-51.2243 -21.14608,-79.3632 -10.7655,-36.6717 -21.5355,-80.975 -25.2524,-88.2131 -12.0844,-38.7255 -27.5009,-71.17132 -43.8445,-133.32282 -5.7147,-24.1339 -11.9872,-26.3585 -21.4747,-82.3202 -6.5501,-20.51875 -14.0163,-103.61238 -23.5638,-126.60189 -19.5407,-63.59556 -13.2199,-75.07262 -21.6668,-131.35832 -1.6158,-50.06002 -9.3439,-56.91512 -23.0475,-64.4702 -4.2823,-1.5784 -4.8657,4.10669 -5.4131,5.40312 -7.5249,17.82107 -8.2461,31.23989 -31.6524,52.71449 -12.9518,9.42191 -37.2444,9.50879 -28.0004,-17.52506 9.0286,-27.83641 20.58,-41.23464 31.3174,-61.51642 3.8316,-14.24417 16.0489,-32.87893 2.4673,-47.1231 -12.8032,-14.75902 -8.8887,-21.76055 -10.846,-36.9932 -2.3616,-17.60547 -7.9904,-17.00707 -16.1061,-22.36961 -10.9507,-7.04165 -9.8437,-21.39569 -19.2697,-27.58945 -8.0915,-4.70331 -7.2139,-7.72902 -7.5738,-17.14977 -1.1795,-6.7806 -0.8774,-14.1962 -13.4218,-16.10611 -12.9306,-2.86564 -11.4392,-8.13493 -15.2113,-12.52698 -5.694,-9.65293 -14.4024,-14.78432 -26.8436,-14.31655 l -58.7487,-21.05922 c -34.6824,-2.76469 -50.631,-5.28824 -106.7863,1.37397 -51.6175,7.40141 -113.932304,36.29613 -143.401304,56.91418 -22.747,16.32785 -26.2139,29.16831 -38.9812,48.14622 -12.8318,18.43994 -5.3961,31.82517 7.0047,40.37384 49.3022,39.10666 76.5359,39.1534 110.0585,61.26093 14.492704,21.79107 -2.378,22.67325 -11.6322,28.63309 -19.9993,2.33919 -38.5931,2.21863 -51.8975,-7.15827 -18.5404004,-30.08635 -32.7383004,-45.69735 -41.16,-42.05486 l -25.9488,13.42177 c 6.0367,21.06871 8.8589,33.56583 9.8426,41.16007 -10.0552,1.40564 -14.7434,-6.98465 -14.7957,-15.58197 0.2357,-33.93701 -13.9798,-64.73437 -19.6852,-92.68693 l -10.2583,0 c -20.7296,5.05792 -9.2415,-3.69768 -4.4739,-9.84262 10.5249,-7.89525 9.0113,-26.56298 9.7341,-35.96352 -3.543,-32.05584 -6.4532,-35.82733 -9.9962,-58.60292 -1.7939,-16.78845 -2.5469,-30.28048 5.6308,-15.49203 0.3036,25.0327 2.6915,41.72828 8.0531,46.52878 l 41.16,2.68435 c 10.7382,-2.43879 23.4575996,-14.71887 36.6862,-29.52788 33.4648,-32.66919 47.0494,-39.03083 77.105,-46.63733 32.326404,-8.85238 150.674904,-22.98803 206.541604,-8.83928 74.7268,17.88756 86.5878,47.86472 121.6906,73.3723 22.15,8.10031 24.0017,-6.99747 10.7375,-39.37051 -23.0864,-38.80195 -56.6924,-53.71226 -81.9682,-63.26759 -42.7003,-12.0551 -69.0541,-27.22184 -150.4137,-19.94733 -77.8803,11.2317 -160.043604,7.71628 -240.959004,9.84263 -43.2495,7.85958 -76.636496,18.61992 -92.534896,36.70281 6.4352,14.77293 4.1789,36.84712 3.293,49.5103 -1.8097,25.86778 -17.5041,65.2305 -12.012,87.7414 2.3247,9.52841 10.5617,18.98944 19.9288,22.00444 10.811,3.47975 27.575396,-0.30047 30.216496,10.65472 -11.983196,12.67373 -31.736896,17.57702 -32.618796,41.35202 5.5833,33.06494 20.1942,27.75357 40.623696,36.02949 13.3042,20.85925 26.6717,41.72789 30.6061,61.19916 6.5784,45.66631 -9.9557,74.11204 -6.5911,113.57629 2.7609,30.58248 23.39701,64.89814 48.7997,70.13829 81.1509,15.15948 156.272834,28.45198 190.105394,34.38027 22.68612,4.107 99.03701,24.04836 100.16951,51.1613 2.3142,23.95842 14.5919,36.54809 27.9707,39.31859 20.5205,5.2249 34.732,0.6271 45.1382,-4.4374 44.9552,-15.4079 62.453,-15.3585 89.2819,-12.5311 27.1768,8.7865 53.3058,21.4403 77.8243,50.4941 16.1022,22.1152 17.5709,51.1024 43.2303,107.03752 47.0421,150.354 47.15815,156.2033 57.15085,208.5686"
       style="fill:#ececec;stroke:#000000;stroke-width:1px;stroke-linecap:butt;stroke-linejoin:miter;stroke-opacity:1;display:inline" />
    <path
       style="fill:none;stroke:#666666;stroke-width:3;stroke-linecap:butt;stroke-linejoin:miter;stroke-miterlimit:4;stroke-opacity:1;stroke-dasharray:none"
       d="M 32.747952,602.85092 C 202.27823,555.24322 328.40078,671.6714 316.40218,661.70343"
       id="path3790-1"
       inkscape:connector-curvature="0"
       sodipodi:nodetypes="cc" />
  </g>
  <g
     inkscape:groupmode="layer"
     id="layer2"
     inkscape:label="elektrolarynx"
     transform="translate(191.71831,0.87389)"
     style="display:inline">
    <g
       id="g3776"
       transform="translate(24.571429,-2.8571428)">
      <rect
         transform="matrix(0.98480775,0.17364818,-0.17364818,0.98480775,0,0)"
         ry="3.5714285"
         y="858.99915"
         x="492.82877"
         height="11.931961"
         width="69.923912"
         id="rect2987"
         style="fill:#cccccc;stroke:#000000;stroke-width:2;stroke-miterlimit:4;stroke-dasharray:none" />
      <path
         transform="matrix(0.98480775,0.17364818,-0.17364818,0.98480775,200.97984,-102.85441)"
         d="m 300.35715,1120.0941 a 4.375,19.375 0 1 1 -8.75,0 4.375,19.375 0 1 1 8.75,0 z"
         sodipodi:ry="19.375"
         sodipodi:rx="4.375"
         sodipodi:cy="1120.0941"
         sodipodi:cx="295.98215"
         id="path3767"
         style="fill:#808080;stroke:#808080;stroke-width:2;stroke-miterlimit:4;stroke-dasharray:none"
         sodipodi:type="arc" />
      <rect
         transform="matrix(0.98480775,0.17364818,-0.17364818,0.98480775,0,0)"
         ry="2.0203052"
         y="952.92053"
         x="476.4946"
         height="60.104607"
         width="8.5101528"
         id="rect3761"
         style="fill:#ffffff;stroke:#000000;stroke-width:2;stroke-miterlimit:4;stroke-dasharray:none" />
      <g
         transform="matrix(0.98480775,0.17364818,-0.17364818,0.98480775,200.97984,-102.85441)"
         style="fill:#ffffff"
         id="g3772">
        <rect
           ry="4.5456862"
           style="fill:#ffffff;stroke:#000000;stroke-width:2;stroke-miterlimit:4;stroke-dasharray:none"
           id="rect2985"
           width="86.873116"
           height="320.21835"
           x="304.05591"
           y="1005.121" />
        <rect
           style="fill:#ffffff;stroke:#000000;stroke-width:2.01217222;stroke-miterlimit:4;stroke-dasharray:none"
           id="rect3763"
           width="86.773544"
           height="82.844971"
           x="304.29178"
           y="1076.618" />
      </g>
    </g>
    <path
       style="fill:none;stroke:#666666;stroke-width:3;stroke-linecap:butt;stroke-linejoin:miter;stroke-miterlimit:4;stroke-opacity:1;stroke-dasharray:none"
       d="m 354.64285,902.68341 c 48.06719,-3.56134 57.47085,-3.33186 98.57143,17.14286"
       id="path3784"
       inkscape:connector-curvature="0"
       sodipodi:nodetypes="cc" />
    <path
       style="fill:none;stroke:#666666;stroke-width:3;stroke-linecap:butt;stroke-linejoin:miter;stroke-miterlimit:4;stroke-opacity:1;stroke-dasharray:none"
       d="m 342.37745,863.00031 c 80.63718,-15.21606 142.60658,25.00474 141.42857,24.28571"
       id="path3786"
       inkscape:connector-curvature="0"
       sodipodi:nodetypes="cc" />
    <path
       style="fill:none;stroke:#666666;stroke-width:3;stroke-linecap:butt;stroke-linejoin:miter;stroke-miterlimit:4;stroke-opacity:1;stroke-dasharray:none"
       d="m 322.37745,832.49524 c 122.49916,-18.6282 190.08755,32.57463 190,32.85714"
       id="path3788"
       inkscape:connector-curvature="0"
       sodipodi:nodetypes="cc" />
    <path
       style="fill:none;stroke:#666666;stroke-width:3;stroke-linecap:butt;stroke-linejoin:miter;stroke-miterlimit:4;stroke-opacity:1;stroke-dasharray:none"
       d="m 308.77012,802.49524 c 146.08048,-30.27848 235.60811,39.91506 235.71429,40"
       id="path3790"
       inkscape:connector-curvature="0"
       sodipodi:nodetypes="cc" />
  </g>
  <g
     inkscape:groupmode="layer"
     id="layer4"
     inkscape:label="Layer"
     style="display:none">
    <text
       xml:space="preserve"
       style="font-size:56px;font-style:normal;font-weight:normal;line-height:125%;letter-spacing:0px;word-spacing:0px;fill:#000000;fill-opacity:1;stroke:none;display:inline;font-family:Sans"
       x="8.971077"
       y="1065.0717"
       id="text3810"
       sodipodi:linespacing="125%"><tspan
         sodipodi:role="line"
         id="tspan3812"
         x="8.971077"
         y="1065.0717">Elektrolarynx</tspan></text>
    <path
       style="fill:none;stroke:#000000;stroke-width:2;stroke-linecap:butt;stroke-linejoin:miter;stroke-miterlimit:4;stroke-opacity:1;stroke-dasharray:none;display:inline"
       d="m 354.62166,1050.3379 c 141.42135,0 141.42135,0 141.42135,0"
       id="path3814"
       inkscape:connector-curvature="0" />
  </g>
</svg>
