<?xml version="1.0" encoding="UTF-8" standalone="no"?>
<!-- Created with Inkscape (http://www.inkscape.org/) -->

<svg
   xmlns:dc="http://purl.org/dc/elements/1.1/"
   xmlns:cc="http://creativecommons.org/ns#"
   xmlns:rdf="http://www.w3.org/1999/02/22-rdf-syntax-ns#"
   xmlns:svg="http://www.w3.org/2000/svg"
   xmlns="http://www.w3.org/2000/svg"
   xmlns:sodipodi="http://sodipodi.sourceforge.net/DTD/sodipodi-0.dtd"
   xmlns:inkscape="http://www.inkscape.org/namespaces/inkscape"
   width="1696.2957"
   height="1381.1562"
   id="svg2"
   inkscape:label="Pozadí"
   version="1.1"
   inkscape:version="0.48.4 r9939"
   sodipodi:docname="esophageal.svg">
  <title
     id="title5287">Princip PE segmentu</title>
  <defs
     id="defs3790">
    <marker
       inkscape:stockid="TriangleOutL"
       orient="auto"
       refY="0"
       refX="0"
       id="TriangleOutL"
       style="overflow:visible">
      <path
         id="path4756"
         d="m 5.77,0 -8.65,5 0,-10 8.65,5 z"
         style="fill-rule:evenodd;stroke:#000000;stroke-width:1pt"
         transform="scale(0.8,0.8)"
         inkscape:connector-curvature="0" />
    </marker>
    <marker
       inkscape:stockid="Arrow2Lend"
       orient="auto"
       refY="0"
       refX="0"
       id="Arrow2Lend"
       style="overflow:visible">
      <path
         id="path4635"
         style="fill-rule:evenodd;stroke-width:0.625;stroke-linejoin:round"
         d="M 8.7185878,4.0337352 -2.2072895,0.01601326 8.7185884,-4.0017078 c -1.7454984,2.3720609 -1.7354408,5.6174519 -6e-7,8.035443 z"
         transform="matrix(-1.1,0,0,-1.1,-1.1,0)"
         inkscape:connector-curvature="0" />
    </marker>
  </defs>
  <sodipodi:namedview
     id="base"
     pagecolor="#ffffff"
     bordercolor="#666666"
     borderopacity="1.0"
     inkscape:pageopacity="0.0"
     inkscape:pageshadow="2"
     inkscape:zoom="0.32128907"
     inkscape:cx="751.05531"
     inkscape:cy="806.77468"
     inkscape:document-units="px"
     inkscape:current-layer="layer3"
     showgrid="false"
     fit-margin-top="0"
     fit-margin-left="0"
     fit-margin-right="0"
     fit-margin-bottom="-5"
     inkscape:window-width="1920"
     inkscape:window-height="1137"
     inkscape:window-x="-8"
     inkscape:window-y="-8"
     inkscape:window-maximized="1" />
  <metadata
     id="metadata3793">
    <rdf:RDF>
      <cc:Work
         rdf:about="">
        <dc:format>image/svg+xml</dc:format>
        <dc:type
           rdf:resource="http://purl.org/dc/dcmitype/StillImage" />
        <dc:title>Princip PE segmentu</dc:title>
      </cc:Work>
    </rdf:RDF>
  </metadata>
  <g
     inkscape:label="Vrstva 1"
     inkscape:groupmode="layer"
     id="layer1"
     transform="translate(271.3989,158.15625)"
     style="display:inline">
    <path
       sodipodi:nodetypes="cssssccscccccccccccsccccccccc"
       inkscape:connector-curvature="0"
       id="path3882-1"
       d="m -164.9578,-157.81355 c -4.6981,16.25949 37.97754,42.13301 42.56504,70.410272 4.6336,28.56111 0.6879,25.43937 -10.3159,47.481521 -15.9796,32.0094696 -26.6386,50.29523 -45.78281,81.22566 -38.2472,61.794537 -79.75212,100.009307 -83.6931,131.803727 -7.22281,58.27107 28.35768,76.33022 60.273,73.27249 12.9007,-1.03673 13.8926,-25.78158 2.5649,-46.54031 -4.6122,-6.2736 -8.1931,-19.78531 -5.9007,-28.07773 14.5114,-52.49187 93.30091,-130.929667 133.835406,-187.238877 12.1672,-10.93412 35.929,-56.195531 96.6892,-63.406301 107.052404,-1.48996 124.592204,-1.3219 222.007104,2.33975 80.8083,1.31584 52.789,45.381661 85.7649,79.8935706 20.993,22.8220804 41.2068,23.8762704 77.1227,51.1792404 9.8521,6.58025 0.943,17.51868 20.9295,23.82659 6.6821,6.19367 -4.5875,12.70506 20.3919,18.07176 3.9068,-0.71049 5.4518,8.740877 7.2635,18.007317 21.067,16.70492 44.1864,29.90284 48.8208,72.16981 14.8802,72.07842 14.762,161.32748 22.4056,241.50943 8.1115,69.33451 22.91947,135.21643 34.49457,219.86525 8.97242,92.01707 -16.57721,91.17699 -11.98765,121.05121 4.58956,29.87421 34.67546,25.81985 41.70465,58.19407 14.246,57.86777 27.36793,149.73528 45.69413,226.3612 17.625,57.651 26.28584,117.9512 36.57324,173.9259 l 252.61383,-0.018 C 885.14911,1035.0711 809.3271,983.66578 786.2505,766.78344 c 5.0104,-119.83647 17.0166,-131.67735 60.8453,-236.22303 32.6975,-63.82794 77.0018,-143.762 105.5845,-273.80396 25.9456,-87.41803 23.3772,-102.507 46.5288,-232.643897 11.8736,-73.54187 13.3052,-104.622865 11.6606,-182.257783"
       style="fill:#ececec;stroke:#000000;stroke-width:1px;stroke-linecap:butt;stroke-linejoin:miter;stroke-opacity:1;display:inline" />
    <path
       sodipodi:nodetypes="ccccccccccsscccsccccccccccccccccccccccccccccccccccccccccssscccccccccccccc"
       inkscape:connector-curvature="0"
       id="path3884-7"
       d="m 540.11567,1226.3451 c 0.8331,-125.5779 -83.24893,-256.62732 -111.63943,-298.89022 -10.0134,-12.7431 -27.2565,-6.713 -52.1303,-2.4592 -42.3961,7.7755 -55.8922,22.4095 -48.3341,34.2379 19.1266,54.00122 62.1795,49.58882 94.4564,106.43872 29.004,49.3276 36.36449,108.2477 54.51639,160.6727 m 164.26724,0.144 c -3.5791,-20.2818 -14.36893,-49.8644 -21.23273,-78.0033 -10.7655,-36.6717 -21.5355,-80.975 -25.2524,-88.2131 -12.0844,-38.7255 -27.5009,-71.17132 -43.8445,-133.32282 -5.7147,-24.1339 -7.65285,-27.26858 -21.4747,-82.3202 -5.06737,-20.18305 17.85713,-43.58615 13.71217,-69.72788 -4.14495,-26.14174 -31.4308,-23.95068 -37.27597,-56.87401 -19.5407,-63.59556 -13.2199,-75.07262 -21.6668,-131.35832 -1.6158,-50.06002 -9.3439,-56.91512 -23.0475,-64.4702 -4.2823,-1.5784 -4.8657,4.10669 -5.4131,5.40312 -7.5249,17.82107 -8.2461,31.23989 -31.6524,52.71449 -12.9518,9.42191 -37.2444,9.50879 -28.0004,-17.52506 9.0286,-27.83641 20.58,-41.23464 31.3174,-61.51642 3.8316,-14.24417 16.0489,-32.87893 2.4673,-47.1231 -12.8032,-14.75902 -8.8887,-21.76055 -10.846,-36.9932 -2.3616,-17.60547 -7.9904,-17.00707 -16.1061,-22.36961 -10.9507,-7.04165 -9.8437,-21.39569 -19.2697,-27.58945 -8.0915,-4.70331 -7.2139,-7.72902 -7.5738,-17.14977 -1.1795,-6.7806 -0.8774,-14.1962 -13.4218,-16.10611 -12.9306,-2.86564 -11.4392,-8.13493 -15.2113,-12.52698 -5.694,-9.65293 -14.4024,-14.78432 -26.8436,-14.31655 l -58.7487,-21.05922 c -34.6824,-2.76469 -50.631,-5.28824 -106.7863,1.37397 -51.6175,7.40141 -113.932304,36.29613 -143.401304,56.91418 -22.747,16.32785 -26.2139,29.16831 -38.9812,48.14622 -12.8318,18.43994 -5.3961,31.82517 7.0047,40.37384 49.3022,39.10666 76.5359,39.1534 110.0585,61.26093 14.492704,21.79107 -2.378,22.67325 -11.6322,28.63309 -19.9993,2.33919 -38.5931,2.21863 -51.8975,-7.15827 -18.5404004,-30.08635 -32.7383004,-45.69735 -41.16,-42.05486 l -25.9488,13.42177 c 6.0367,21.06871 8.8589,33.56583 9.8426,41.16007 -10.0552,1.40564 -14.7434,-6.98465 -14.7957,-15.58197 0.2357,-33.93701 -13.9798,-64.73437 -19.6852,-92.68693 l -10.2583,0 c -20.7296,5.05792 -9.2415,-3.69768 -4.4739,-9.84262 10.5249,-7.89525 9.0113,-26.56298 9.7341,-35.96352 -3.543,-32.05584 -6.4532,-35.82733 -9.9962,-58.60292 -1.7939,-16.78845 -2.5469,-30.28048 5.6308,-15.49203 0.3036,25.0327 2.6915,41.72828 8.0531,46.52878 l 41.16,2.68435 c 10.7382,-2.43879 23.4575996,-14.71887 36.6862,-29.52788 33.4648,-32.66919 47.0494,-39.03083 77.105,-46.63733 32.326404,-8.85238 150.674904,-22.98803 206.541604,-8.83928 74.7268,17.88756 86.5878,47.86472 121.6906,73.3723 22.15,8.10031 24.0017,-6.99747 10.7375,-39.37051 -23.0864,-38.80195 -56.6924,-53.71226 -81.9682,-63.26759 -42.7003,-12.0551 -69.0541,-27.22184 -150.4137,-19.94733 -77.8803,11.2317 -160.043604,7.71628 -240.959004,9.84263 -43.2495,7.85958 -76.636496,18.61992 -92.534896,36.70281 6.4352,14.77293 4.1789,36.84712 3.293,49.5103 -1.8097,25.86778 -17.5041,65.2305 -12.012,87.7414 2.3247,9.52841 10.5617,18.98944 19.9288,22.00444 10.811,3.47975 27.575396,-0.30047 30.216496,10.65472 -11.983196,12.67373 -31.736896,17.57702 -32.618796,41.35202 5.5833,33.06494 20.1942,27.75357 40.623696,36.02949 13.3042,20.85925 26.6717,41.72789 30.6061,61.19916 6.5784,45.66631 -9.9557,74.11204 -6.5911,113.57629 2.7609,30.58248 19.3564,53.78646 48.7997,70.13829 81.1509,15.15948 170.201404,-5.83373 264.391104,-9.5483 19.1147,-4.10729 34.7513,49.4055 35.8838,76.51844 2.3142,23.95842 4.5919,55.11952 17.9707,57.89002 20.5205,5.2249 34.732,0.6271 45.1382,-4.4374 44.9552,-15.4079 62.453,-15.3585 89.2819,-12.5311 27.1768,8.7865 53.3058,21.4403 77.8243,50.4941 16.1022,22.1152 17.5709,51.1024 43.2303,107.03752 47.0421,150.354 47.15815,154.8849 57.15085,207.2502"
       style="fill:#ececec;stroke:#000000;stroke-width:1px;stroke-linecap:butt;stroke-linejoin:miter;stroke-opacity:1;display:inline" />
    <path
       style="fill:#cccccc;stroke:#000000;stroke-width:1px;stroke-linecap:butt;stroke-linejoin:miter;stroke-opacity:1;display:inline"
       d="m -37.256364,302.80457 c -3.9384,12.28651 -22.7188,31.45199 -29.7373,54.41289 -2.0392,4.75811 -2.1339,32.31196 3.1635,49.35123 5.1339,16.51283 7.5417,0.9017 9.4907,-0.63271 0.3177,-11.16941 1.669,-16.13751 3.1635,-20.24666 1.4211,-25.93438 25.3441,-24.85451 13.9196,-82.88475 z"
       id="path3010-4"
       inkscape:connector-curvature="0"
       sodipodi:nodetypes="ccsccc" />
    <path
       style="fill:#cccccc;stroke:#000000;stroke-width:1px;stroke-linecap:butt;stroke-linejoin:miter;stroke-opacity:1;display:inline"
       d="m -53.104964,405.63455 c -6.1499,25.1029 0.5041,32.60027 3.1318,45.634 17.3401,31.48376 22.9757,32.53544 34.4491,48.76575 16.21359965,21.93157 11.5318996,11.21443 9.3952996,4.47392 -9.2180996,-14.81637 -19.2493996,-29.73438 -19.2378996,-43.39705 3.4444,-10.60268 -1.2343,-13.08219 -1.7895,-19.68525 -16.4299,-33.97361 -20.164,-31.97738 -25.9488,-35.79137 z"
       id="path3012-0"
       inkscape:connector-curvature="0"
       sodipodi:nodetypes="ccccccc" />
    <path
       style="fill:none;stroke:#000000;stroke-width:3;stroke-linecap:butt;stroke-linejoin:miter;stroke-miterlimit:4;stroke-opacity:1;stroke-dasharray:none;marker-end:url(#TriangleOutL)"
       d="m 608.57143,1046.6479 c -50,-222.85715 -50,-222.85715 -50,-222.85715"
       id="path3840"
       inkscape:connector-curvature="0" />
    <path
       style="fill:none;stroke:#808080;stroke-width:2;stroke-linecap:butt;stroke-linejoin:miter;stroke-miterlimit:4;stroke-opacity:1;stroke-dasharray:none"
       d="m 786.96429,893.93342 c 13.61938,-12.4477 26.96428,-4.10714 26.96428,-4.10714"
       id="path5240"
       inkscape:connector-curvature="0"
       transform="translate(-263.07353,-158.08516)"
       sodipodi:nodetypes="cc" />
    <path
       style="fill:none;stroke:#808080;stroke-width:2;stroke-linecap:butt;stroke-linejoin:miter;stroke-miterlimit:4;stroke-opacity:1;stroke-dasharray:none"
       d="m 515.4979,722.84826 c 21.06375,-17.45826 38.89473,-5.38029 38.92857,-5.35714"
       id="path5242"
       inkscape:connector-curvature="0"
       sodipodi:nodetypes="cc" />
    <path
       style="fill:none;stroke:#808080;stroke-width:2;stroke-linecap:butt;stroke-linejoin:miter;stroke-miterlimit:4;stroke-opacity:1;stroke-dasharray:none"
       d="m 771.07143,866.79056 c 28.60203,-20.20895 51.3818,-7.70424 51.42857,-7.67857"
       id="path5244"
       inkscape:connector-curvature="0"
       transform="translate(-263.07353,-158.08516)"
       sodipodi:nodetypes="cc" />
    <path
       style="fill:none;stroke:#808080;stroke-width:2;stroke-linecap:butt;stroke-linejoin:miter;stroke-miterlimit:4;stroke-opacity:1;stroke-dasharray:none"
       d="m 766.60714,849.82628 c 29.74821,-24.99145 56.7017,-8.08841 56.78572,-8.03572"
       id="path5246"
       inkscape:connector-curvature="0"
       transform="translate(-263.07353,-158.08516)"
       sodipodi:nodetypes="cc" />
    <path
       style="fill:none;stroke:#808080;stroke-width:2;stroke-linecap:butt;stroke-linejoin:miter;stroke-miterlimit:4;stroke-opacity:1;stroke-dasharray:none"
       d="m 500.67647,666.97002 c 29.74821,-24.99145 56.7017,-8.08841 56.78572,-8.03572"
       id="path5246-5"
       inkscape:connector-curvature="0"
       sodipodi:nodetypes="cc" />
    <path
       style="fill:none;stroke:#808080;stroke-width:2;stroke-linecap:butt;stroke-linejoin:miter;stroke-miterlimit:4;stroke-opacity:1;stroke-dasharray:none"
       d="m 496.92646,643.57717 c 29.74821,-24.99145 56.7017,-8.08841 56.78572,-8.03572"
       id="path5246-8"
       inkscape:connector-curvature="0"
       sodipodi:nodetypes="cc" />
    <path
       style="fill:none;stroke:#808080;stroke-width:2;stroke-linecap:butt;stroke-linejoin:miter;stroke-miterlimit:4;stroke-opacity:1;stroke-dasharray:none"
       d="m 491.92647,591.61288 c 29.74821,-24.99145 56.7017,-8.08841 56.78572,-8.03572"
       id="path5246-4"
       inkscape:connector-curvature="0"
       sodipodi:nodetypes="cc" />
    <path
       style="fill:none;stroke:#808080;stroke-width:2;stroke-linecap:butt;stroke-linejoin:miter;stroke-miterlimit:4;stroke-opacity:1;stroke-dasharray:none"
       d="m 493.71219,618.3986 c 29.74821,-24.99145 56.7017,-8.08841 56.78572,-8.03572"
       id="path5246-1"
       inkscape:connector-curvature="0"
       sodipodi:nodetypes="cc" />
  </g>
  <g
     inkscape:groupmode="layer"
     id="layer3"
     inkscape:label="Layer"
     style="display:none">
    <text
       xml:space="preserve"
       style="font-size:56px;font-style:normal;font-weight:normal;line-height:125%;letter-spacing:0px;word-spacing:0px;fill:#000000;fill-opacity:1;stroke:none;display:inline;font-family:Sans"
       x="1191.3475"
       y="909.34143"
       id="text3792"
       sodipodi:linespacing="125%"><tspan
         sodipodi:role="line"
         id="tspan3794"
         x="1191.3475"
         y="909.34143"
         style="font-size:56px">Faryngoezofageální</tspan><tspan
         sodipodi:role="line"
         x="1191.3475"
         y="979.34143"
         id="tspan3796"
         style="font-size:56px">segment</tspan></text>
    <path
       style="fill:none;stroke:#000000;stroke-width:2;stroke-linecap:butt;stroke-linejoin:miter;stroke-miterlimit:4;stroke-opacity:1;stroke-dasharray:none;display:inline"
       d="m 1174.2048,925.05575 c -338.57147,0 -338.57147,0 -338.57147,0"
       id="path3798"
       inkscape:connector-curvature="0" />
    <text
       xml:space="preserve"
       style="font-size:40px;font-style:normal;font-weight:normal;line-height:125%;letter-spacing:0px;word-spacing:0px;fill:#000000;fill-opacity:1;stroke:none;display:inline;font-family:Sans"
       x="2.4681072"
       y="1040.7322"
       id="text3004"
       sodipodi:linespacing="125%"><tspan
         sodipodi:role="line"
         id="tspan3006"
         x="2.4681072"
         y="1040.7322"
         style="font-size:56px">Vzduch proudící</tspan><tspan
         sodipodi:role="line"
         x="2.4681072"
         y="1110.7322"
         id="tspan3008"
         style="font-size:56px">z jícnu</tspan></text>
    <path
       style="fill:none;stroke:#000000;stroke-width:2;stroke-linecap:butt;stroke-linejoin:miter;stroke-miterlimit:4;stroke-opacity:1;stroke-dasharray:none;display:inline"
       d="m 433.89671,1067.0177 c 401.42857,0 401.42857,0 401.42857,0"
       id="path3010"
       inkscape:connector-curvature="0" />
  </g>
  <g
     inkscape:groupmode="layer"
     id="layer2"
     inkscape:label="popisek"
     style="display:none"
     transform="translate(271.3989,158.15625)">
    <text
       xml:space="preserve"
       style="font-size:48px;font-style:normal;font-weight:normal;line-height:125%;letter-spacing:0px;word-spacing:0px;fill:#000000;fill-opacity:1;stroke:none;display:inline;font-family:Sans"
       x="-75.474136"
       y="932.41132"
       id="text3945"
       sodipodi:linespacing="125%"><tspan
         sodipodi:role="line"
         id="tspan3947"
         x="-75.474136"
         y="932.41132"
         style="font-size:64px">Stoma</tspan></text>
    <path
       style="fill:none;stroke:#000000;stroke-width:2;stroke-linecap:butt;stroke-linejoin:miter;stroke-miterlimit:4;stroke-opacity:1;stroke-dasharray:none;display:inline"
       d="m 134.83907,915.51283 c 153.9029,0 153.9029,0 153.9029,0"
       id="path3970"
       inkscape:connector-curvature="0" />
  </g>
</svg>
